<svg width="23" height="23" viewBox="0 0 23 23" fill="none" xmlns="http://www.w3.org/2000/svg">
<path d="M12.6502 20.2985V22.5141H10.4346V20.2985H1.57235C0.960546 20.2985 0.464569 19.8025 0.464569 19.1907V3.68175H22.6202V19.1907C22.6202 19.8025 22.1243 20.2985 21.5124 20.2985H12.6502ZM2.68014 18.0829H20.4047V5.89731H2.68014V18.0829ZM12.6502 8.11288H18.1891V10.3284H12.6502V8.11288ZM12.6502 12.544H18.1891V14.7596H12.6502V12.544ZM8.21905 8.11288V11.4362H11.5424C11.5424 13.2717 10.0545 14.7596 8.21905 14.7596C6.38362 14.7596 4.8957 13.2717 4.8957 11.4362C4.8957 9.60074 6.38362 8.11288 8.21905 8.11288ZM0.464569 0.358398H22.6202V2.57396H0.464569V0.358398Z" fill="#AEAFB0"/>
</svg>
