<svg width="23" height="22" viewBox="0 0 23 22" fill="none" xmlns="http://www.w3.org/2000/svg">
<path d="M4.49375 15.805H19.8654V2.84882H2.59046V17.3005L4.49375 15.805ZM5.2406 17.9644L0.431091 21.7433V1.76914C0.431091 1.17285 0.914488 0.689453 1.51078 0.689453H20.9451C21.5414 0.689453 22.0248 1.17285 22.0248 1.76914V16.8847C22.0248 17.481 21.5414 17.9644 20.9451 17.9644H5.2406ZM10.1483 12.566H12.3076V14.7254H10.1483V12.566ZM7.52172 6.96616C7.8662 5.23405 9.39463 3.92851 11.2279 3.92851C13.315 3.92851 15.0068 5.62037 15.0068 7.7074C15.0068 9.79443 13.315 11.4863 11.2279 11.4863H10.1483V9.32693H11.2279C12.1223 9.32693 12.8475 8.60181 12.8475 7.7074C12.8475 6.81296 12.1223 6.08788 11.2279 6.08788C10.4423 6.08788 9.78721 6.6474 9.63951 7.38973L7.52172 6.96616Z" fill="#AEAFB0"/>
</svg>
