<svg width="22" height="21" viewBox="0 0 22 21" fill="none" xmlns="http://www.w3.org/2000/svg">
<path d="M5.70782 2.27101V0.329346H7.64948V2.27101H13.4745V0.329346H15.4161V2.27101H19.2995C19.8357 2.27101 20.2703 2.70567 20.2703 3.24184V8.09601H18.3286V4.21268H15.4161V6.15434H13.4745V4.21268H7.64948V6.15434H5.70782V4.21268H2.79532V17.8043H8.62032V19.746H1.82449C1.28831 19.746 0.853653 19.3114 0.853653 18.7752V3.24184C0.853653 2.70567 1.28831 2.27101 1.82449 2.27101H5.70782ZM15.4161 11.0085C13.2715 11.0085 11.5328 12.7472 11.5328 14.8918C11.5328 17.0365 13.2715 18.7752 15.4161 18.7752C17.5608 18.7752 19.2995 17.0365 19.2995 14.8918C19.2995 12.7472 17.5608 11.0085 15.4161 11.0085ZM9.59115 14.8918C9.59115 11.6748 12.1991 9.06684 15.4161 9.06684C18.6332 9.06684 21.2411 11.6748 21.2411 14.8918C21.2411 18.1089 18.6332 20.7168 15.4161 20.7168C12.1991 20.7168 9.59115 18.1089 9.59115 14.8918ZM14.4453 11.9793V15.294L16.6713 17.52L18.0443 16.147L16.387 14.4897V11.9793H14.4453Z" fill="#3B5D5E"/>
</svg>
