<svg width="22" height="19" viewBox="0 0 22 19" fill="none" xmlns="http://www.w3.org/2000/svg">
<path d="M0.761604 1.2965C0.761604 0.730538 1.22041 0.271729 1.78637 0.271729H20.2322C20.7982 0.271729 21.257 0.730538 21.257 1.2965V17.6928C21.257 18.2588 20.7982 18.7176 20.2322 18.7176H1.78637C1.22041 18.7176 0.761604 18.2588 0.761604 17.6928V1.2965ZM2.81114 2.32126V16.668H19.2074V2.32126H2.81114ZM4.86068 4.3708H6.91021V6.42034H4.86068V4.3708ZM6.91021 8.46987H4.86068V10.5194H6.91021V8.46987ZM4.86068 12.5689H6.91021V14.6185H4.86068V12.5689ZM17.1579 4.3708H8.95975V6.42034H17.1579V4.3708ZM8.95975 12.5689H17.1579V14.6185H8.95975V12.5689ZM17.1579 8.46987H8.95975V10.5194H17.1579V8.46987Z" fill="#AEAFB0"/>
</svg>
