<svg width="21" height="23" viewBox="0 0 21 23" fill="none" xmlns="http://www.w3.org/2000/svg">
<path d="M16.1609 0.495117V2.71438H19.4971C20.1058 2.71438 20.5994 3.20811 20.5994 3.81669V21.5854C20.5994 22.1942 20.1057 22.6878 19.4971 22.6878H1.72833C1.11954 22.6878 0.626022 22.1941 0.626022 21.5854V3.81669C0.626022 3.2079 1.11975 2.71438 1.72833 2.71438H5.06455V0.495117H16.1609ZM5.06455 4.93364H2.84529V20.4685H18.3801V4.93364H16.1609V7.15291H5.06455V4.93364ZM7.28381 16.03V18.2492H5.06455V16.03H7.28381ZM7.28381 12.7011V14.9203H5.06455V12.7011H7.28381ZM7.28381 9.37217V11.5914H5.06455V9.37217H7.28381ZM13.9416 2.71438H7.28381V4.93364H13.9416V2.71438Z" fill="#AEAFB0"/>
</svg>
